<?xml version="1.0" encoding="utf-8"?>
<svg version="1.1" x="0px" y="0px" viewBox="0 0 90 112.5" style="enable-background:new 0 0 90 90;" xmlns="http://www.w3.org/2000/svg">
  <path d="M 90 56.621 C 90 56.621 90 56.498 90 56.374 C 90 56.25 90 56.25 90 56.126 C 90 56.002 90 55.879 89.878 55.755 C 89.878 55.755 89.878 55.755 89.878 55.755 C 89.878 55.755 89.878 55.63 89.757 55.506 C 82.795 46.711 78.521 36.18 77.3 24.906 C 77.3 24.783 77.3 24.783 77.178 24.659 C 77.056 24.04 76.689 23.668 76.079 23.544 C 65.088 22.305 54.586 17.969 45.916 10.908 C 45.916 10.908 45.794 10.784 45.672 10.784 C 45.672 10.784 45.672 10.784 45.672 10.784 C 45.55 10.784 45.427 10.66 45.305 10.66 C 45.305 10.66 45.183 10.66 45.061 10.66 C 44.939 10.66 44.939 10.66 44.817 10.66 C 44.695 10.66 44.573 10.66 44.45 10.784 C 44.45 10.784 44.45 10.784 44.45 10.784 C 44.45 10.784 44.328 10.784 44.206 10.908 C 35.536 17.969 25.156 22.305 14.044 23.544 C 13.677 23.544 13.433 23.792 13.189 24.04 C 12.944 24.288 12.679 25.106 12.557 25.477 C 11.336 36.751 7.205 46.711 0.244 55.506 C 0.244 55.506 0.122 55.63 0.122 55.755 C 0.122 55.755 0.122 55.755 0.122 55.755 C 0.122 55.879 0 56.002 0 56.126 C 0 56.25 0 56.25 0 56.374 C 0 56.498 0 56.498 0 56.621 C 0 56.745 0 56.87 0.122 56.994 C 0.122 56.994 0.122 56.994 0.122 56.994 C 0.122 56.994 0.122 57.117 0.244 57.241 C 7.205 66.037 11.479 76.567 12.7 87.841 C 12.7 88.46 13.189 88.832 13.799 88.956 C 13.799 88.956 13.921 88.956 13.921 88.956 C 25.034 90.195 35.414 94.531 44.084 101.592 C 44.328 101.84 44.573 101.84 44.817 101.84 C 44.817 101.84 44.817 101.84 44.817 101.84 C 44.817 101.84 44.817 101.84 44.817 101.84 C 45.061 101.84 45.305 101.716 45.55 101.592 C 54.22 94.531 64.6 90.195 75.712 88.956 C 75.958 88.956 76.201 88.832 76.323 88.708 C 76.934 88.584 76.934 88.584 76.934 88.584 C 76.934 88.584 77.056 88.46 77.056 88.46 C 77.178 88.336 77.3 88.089 77.3 87.841 C 78.521 76.691 82.795 66.037 89.757 57.241 C 89.757 57.241 89.878 57.117 89.878 56.994 C 89.878 56.994 89.878 56.994 89.878 56.994 C 90 56.87 90 56.745 90 56.621 Z M 86.825 55.755 L 46.894 55.755 L 75.102 27.013 C 76.567 37.543 80.597 47.454 86.825 55.755 Z M 74.125 26.022 L 45.916 54.764 L 45.916 14.129 C 54.098 20.447 63.867 24.535 74.125 26.022 Z M 44.45 54.764 L 16.119 26.022 C 26.377 24.659 36.147 20.571 44.45 14.252 L 44.45 54.764 Z M 44.45 98.495 C 36.147 92.177 26.499 88.089 16.242 86.726 L 44.45 58.232 L 44.45 98.495 Z M 45.916 98.619 L 45.916 58.232 L 74.003 86.726 C 63.745 88.212 54.098 92.301 45.916 98.619 Z M 15.265 27.013 L 43.474 55.755 L 3.541 55.755 C 9.769 47.454 13.799 37.543 15.265 27.013 Z M 3.664 57.241 L 43.474 57.241 L 15.265 85.859 C 13.921 75.452 9.891 65.665 3.664 57.241 Z M 75.102 85.859 L 46.894 57.241 L 86.703 57.241 C 80.475 65.665 76.567 75.452 75.102 85.859 Z" style=""/>
</svg>